<svg width="56" height="56" viewBox="0 0 56 56" fill="none" xmlns="http://www.w3.org/2000/svg">
<path d="M43.938 23.448H34.3594L30.7036 14.9343C30.532 14.5291 30.061 14.3424 29.6579 14.5172C29.2508 14.688 29.0632 15.1568 29.2389 15.558L32.6233 23.448H24.2221L27.6065 15.558C27.7781 15.1528 27.5905 14.688 27.1874 14.5172C26.7803 14.3463 26.3134 14.5331 26.1418 14.9343L22.4859 23.452H12.5402C12.1011 23.452 11.7419 23.8096 11.7419 24.2466C11.7419 24.6836 12.1011 25.0411 12.5402 25.0411H13.0191L16.4754 38.2428C16.5672 38.5924 16.8864 38.8387 17.2496 38.8387H39.4321C39.7993 38.8387 40.1146 38.5924 40.2064 38.2388L43.5708 25.0451H43.938C44.377 25.0451 44.7362 24.6876 44.7362 24.2505C44.7362 23.8056 44.377 23.448 43.938 23.448ZM38.8095 37.2416H17.8683L17.078 34.2263H37.3647C37.8037 34.2263 38.1629 33.8687 38.1629 33.4317C38.1629 32.9947 37.8037 32.6371 37.3647 32.6371H16.659L15.8727 29.6337H38.4383C38.8773 29.6337 39.2365 29.2762 39.2365 28.8391C39.2365 28.4021 38.8773 28.0446 38.4383 28.0446H15.4576L14.6714 25.0411H23.0128H33.8286H41.9145L38.8095 37.2416Z" fill="#EA8D26"/>
<circle cx="28" cy="28" r="27" stroke="#EA8D26" stroke-width="2"/>
</svg>
