<svg width="56" height="56" viewBox="0 0 56 56" fill="none" xmlns="http://www.w3.org/2000/svg">
<path d="M36.6017 39.9808V15.2713C36.6017 14.0221 35.5856 13 34.3304 13H21.2524C20.0032 13 18.9811 14.0161 18.9811 15.2713V39.9868C18.9811 41.236 19.9972 42.2581 21.2524 42.2581H34.3304C35.5796 42.2521 36.6017 41.236 36.6017 39.9808ZM20.4455 18.2659H35.1313V34.8942H20.4455V18.2659ZM21.2524 14.4644H34.3304C34.7727 14.4644 35.1373 14.823 35.1373 15.2713V16.8015H20.4455V15.2713C20.4455 14.823 20.8101 14.4644 21.2524 14.4644ZM20.4455 39.9808V36.3527H35.1313V39.9808C35.1313 40.4231 34.7727 40.7877 34.3244 40.7877H21.2524C20.8101 40.7877 20.4455 40.4291 20.4455 39.9808Z" fill="#E5CC60"/>
<path d="M29.0586 38.1945H26.0879C25.6815 38.1945 25.3527 38.5232 25.3527 38.9296C25.3527 39.3361 25.6815 39.6648 26.0879 39.6648H29.0586C29.465 39.6648 29.7937 39.3361 29.7937 38.9296C29.7937 38.5232 29.465 38.1945 29.0586 38.1945Z" fill="#E5CC60"/>
<circle cx="28" cy="28" r="27" stroke="#E6CE62" stroke-width="2"/>
</svg>
