<svg width="56" height="56" viewBox="0 0 56 56" fill="none" xmlns="http://www.w3.org/2000/svg">
<path d="M38.3191 17.1387H18.1655C16.9715 17.1387 16 18.1396 16 19.3699V32.7504C16 33.9806 16.9715 34.982 18.1655 34.982H27.3463V38.0154H24.715C24.2205 38.0154 23.8192 38.4289 23.8192 38.9384C23.8192 39.4469 24.2205 39.8613 24.715 39.8613H31.7132C32.2077 39.8613 32.609 39.4469 32.609 38.9384C32.609 38.4289 32.2077 38.0154 31.7132 38.0154H29.1379V34.982H38.3191C39.5128 34.982 40.4847 33.9806 40.4847 32.7504V19.3699C40.4847 18.1396 39.5128 17.1387 38.3191 17.1387ZM17.7916 19.3699C17.7916 19.1576 17.9591 18.9846 18.1655 18.9846H38.3191C38.5252 18.9846 38.6931 19.1576 38.6931 19.3704V32.7509C38.6931 32.9636 38.5252 33.1366 38.3191 33.1366H18.1655C17.9591 33.1362 17.7916 32.9631 17.7916 32.7509V19.3699Z" fill="#F4AB53"/>
<circle cx="28" cy="28" r="27" stroke="#F4AC54" stroke-width="2"/>
</svg>
